# Unit cylinder: radius=1, height=1 (z=-0.5 to z=+0.5), 8 segments
v 1.000000 0.000000 0.5
v 0.707107 0.707107 0.5
v 0.000000 1.000000 0.5
v -0.707107 0.707107 0.5
v -1.000000 0.000000 0.5
v -0.707107 -0.707107 0.5
v -0.000000 -1.000000 0.5
v 0.707107 -0.707107 0.5
v 1.000000 0.000000 -0.5
v 0.707107 0.707107 -0.5
v 0.000000 1.000000 -0.5
v -0.707107 0.707107 -0.5
v -1.000000 0.000000 -0.5
v -0.707107 -0.707107 -0.5
v -0.000000 -1.000000 -0.5
v 0.707107 -0.707107 -0.5
v 0.000000 0.000000 0.5
v 0.000000 0.000000 -0.5
f 1 9 10
f 1 10 2
f 2 10 11
f 2 11 3
f 3 11 12
f 3 12 4
f 4 12 13
f 4 13 5
f 5 13 14
f 5 14 6
f 6 14 15
f 6 15 7
f 7 15 16
f 7 16 8
f 8 16 9
f 8 9 1
f 17 1 2
f 17 2 3
f 17 3 4
f 17 4 5
f 17 5 6
f 17 6 7
f 17 7 8
f 17 8 1
f 18 10 9
f 18 11 10
f 18 12 11
f 18 13 12
f 18 14 13
f 18 15 14
f 18 16 15
f 18 9 16
